<mxfile host="app.diagrams.net" modified="2024-07-10T04:54:39.781Z" agent="Mozilla/5.0 (Windows NT 10.0; Win64; x64) AppleWebKit/537.36 (KHTML, like Gecko) Chrome/126.0.0.0 Safari/537.36" etag="8hhCKusfe4Qo9Fc0ZSA2" version="24.6.4" type="github">
  <diagram name="Página-1" id="1ExjrWJ1HwGaBbiA2q7L">
    <mxGraphModel dx="1050" dy="522" grid="1" gridSize="10" guides="1" tooltips="1" connect="1" arrows="1" fold="1" page="1" pageScale="1" pageWidth="827" pageHeight="1169" math="0" shadow="0">
      <root>
        <mxCell id="0" />
        <mxCell id="1" parent="0" />
        <mxCell id="b5BAHYBWK3RH7Po09o7B-3" style="edgeStyle=orthogonalEdgeStyle;rounded=0;orthogonalLoop=1;jettySize=auto;html=1;entryX=0;entryY=0.5;entryDx=0;entryDy=0;" edge="1" parent="1" source="b5BAHYBWK3RH7Po09o7B-1" target="b5BAHYBWK3RH7Po09o7B-2">
          <mxGeometry relative="1" as="geometry">
            <mxPoint x="310" y="190" as="targetPoint" />
          </mxGeometry>
        </mxCell>
        <mxCell id="b5BAHYBWK3RH7Po09o7B-12" value="POST /autenticar-uisuario" style="edgeLabel;html=1;align=center;verticalAlign=middle;resizable=0;points=[];" vertex="1" connectable="0" parent="b5BAHYBWK3RH7Po09o7B-3">
          <mxGeometry x="-0.1356" y="3" relative="1" as="geometry">
            <mxPoint as="offset" />
          </mxGeometry>
        </mxCell>
        <mxCell id="b5BAHYBWK3RH7Po09o7B-1" value="Actor" style="shape=umlActor;verticalLabelPosition=bottom;verticalAlign=top;html=1;outlineConnect=0;" vertex="1" parent="1">
          <mxGeometry x="20" y="220" width="30" height="60" as="geometry" />
        </mxCell>
        <mxCell id="b5BAHYBWK3RH7Po09o7B-10" style="edgeStyle=orthogonalEdgeStyle;rounded=0;orthogonalLoop=1;jettySize=auto;html=1;entryX=0;entryY=0.5;entryDx=0;entryDy=0;" edge="1" parent="1" source="b5BAHYBWK3RH7Po09o7B-2" target="b5BAHYBWK3RH7Po09o7B-9">
          <mxGeometry relative="1" as="geometry" />
        </mxCell>
        <mxCell id="b5BAHYBWK3RH7Po09o7B-2" value="fluxo-caixa-api" style="swimlane;whiteSpace=wrap;html=1;" vertex="1" parent="1">
          <mxGeometry x="290" y="150" width="200" height="200" as="geometry" />
        </mxCell>
        <mxCell id="b5BAHYBWK3RH7Po09o7B-13" value=".NET API&lt;div&gt;&lt;br&gt;&lt;/div&gt;&lt;div&gt;BalanceService&lt;/div&gt;&lt;div&gt;PaymentsService&lt;/div&gt;" style="text;html=1;align=center;verticalAlign=middle;resizable=0;points=[];autosize=1;strokeColor=none;fillColor=none;" vertex="1" parent="b5BAHYBWK3RH7Po09o7B-2">
          <mxGeometry x="40" y="60" width="120" height="70" as="geometry" />
        </mxCell>
        <mxCell id="b5BAHYBWK3RH7Po09o7B-4" value="DB Users" style="shape=cylinder3;whiteSpace=wrap;html=1;boundedLbl=1;backgroundOutline=1;size=15;" vertex="1" parent="1">
          <mxGeometry x="680" y="25" width="60" height="80" as="geometry" />
        </mxCell>
        <mxCell id="b5BAHYBWK3RH7Po09o7B-6" value="DB&lt;div&gt;Payments&lt;/div&gt;" style="shape=cylinder3;whiteSpace=wrap;html=1;boundedLbl=1;backgroundOutline=1;size=15;" vertex="1" parent="1">
          <mxGeometry x="630" y="410" width="60" height="80" as="geometry" />
        </mxCell>
        <mxCell id="b5BAHYBWK3RH7Po09o7B-7" style="edgeStyle=orthogonalEdgeStyle;rounded=0;orthogonalLoop=1;jettySize=auto;html=1;entryX=0;entryY=0.5;entryDx=0;entryDy=0;entryPerimeter=0;exitX=1;exitY=0.5;exitDx=0;exitDy=0;" edge="1" parent="1" source="b5BAHYBWK3RH7Po09o7B-9" target="b5BAHYBWK3RH7Po09o7B-4">
          <mxGeometry relative="1" as="geometry" />
        </mxCell>
        <mxCell id="b5BAHYBWK3RH7Po09o7B-8" style="edgeStyle=orthogonalEdgeStyle;rounded=0;orthogonalLoop=1;jettySize=auto;html=1;entryX=0.5;entryY=0;entryDx=0;entryDy=0;entryPerimeter=0;exitX=0.5;exitY=1;exitDx=0;exitDy=0;" edge="1" parent="1" source="b5BAHYBWK3RH7Po09o7B-2" target="b5BAHYBWK3RH7Po09o7B-6">
          <mxGeometry relative="1" as="geometry" />
        </mxCell>
        <mxCell id="b5BAHYBWK3RH7Po09o7B-9" value="Autenticação JWT" style="rhombus;whiteSpace=wrap;html=1;" vertex="1" parent="1">
          <mxGeometry x="450" y="10" width="110" height="110" as="geometry" />
        </mxCell>
      </root>
    </mxGraphModel>
  </diagram>
</mxfile>
